<svg xmlns="http://www.w3.org/2000/svg" style="isolation:isolate" viewBox="-1.258 -5.805 126.901 105.751" width="126.901" height="105.751">
    <defs>
        <clipPath id="a">
            <path d="M-1.258-5.805h126.901V99.946H-1.258z"/>
        </clipPath>
    </defs>
    <g clip-path="url(#a)">
        <g fill="#eaeaea" stroke="#eaeaea">
            <path d="M28.448 98.367C12.563 99.625-.812 85.868.307 61.576c.557-12.081 4.829-23.06 11.363-32.498C24.862 10.027 46.206-1.507 55.81-2.46L57.501.615Q16.912 18.527 14.452 59.27q7.841-5.535 13.837-4.459" vector-effect="non-scaling-stroke"/>
            <ellipse vector-effect="non-scaling-stroke" cx="27.202" cy="76.098" rx="22.85" ry="22.44"/>
        </g>
        <g fill="#eaeaea" stroke="#eaeaea">
            <path d="M95.09 98.367c-15.886 1.258-29.26-12.499-28.141-36.791.557-12.081 4.829-23.06 11.363-32.498 13.191-19.051 34.535-30.585 44.14-31.538l1.691 3.075Q83.554 18.527 81.094 59.27q7.841-5.535 13.837-4.459" vector-effect="non-scaling-stroke"/>
            <ellipse vector-effect="non-scaling-stroke" cx="93.643" cy="76.098" rx="22.85" ry="22.44"/>
        </g>
    </g>
</svg>
