<?xml version="1.0" encoding="UTF-8" standalone="no"?>
<!DOCTYPE svg PUBLIC "-//W3C//DTD SVG 1.1//EN" "http://www.w3.org/Graphics/SVG/1.1/DTD/svg11.dtd">
<svg width="100%" height="100%" viewBox="0 0 466 70" version="1.1" xmlns="http://www.w3.org/2000/svg" xmlns:xlink="http://www.w3.org/1999/xlink" xml:space="preserve" xmlns:serif="http://www.serif.com/" style="fill-rule:evenodd;clip-rule:evenodd;stroke-linejoin:round;stroke-miterlimit:2;">
    <g>
        <path d="M46.239,28.604L46.239,4.075L70.809,4.075L70.809,28.649L46.243,28.649L46.243,28.626L46.239,28.604Z" style="fill:rgb(250,184,10);fill-rule:nonzero;"/>
        <path d="M31.279,62.65L31.279,38.075L55.846,38.075L55.846,62.65L31.279,62.65Z" style="fill:rgb(185,17,52);fill-rule:nonzero;"/>
        <path d="M5.443,28.649L5.443,4.075L30.009,4.075L30.009,28.649L5.443,28.649Z" style="fill:rgb(15,45,86);fill-rule:nonzero;"/>
        <path d="M35.433,38.173L35.433,34.092L17.681,34.092L17.681,28.558L29.919,28.558L29.919,24.476L39.534,24.476L39.534,38.173L35.433,38.173Z" style="fill:rgb(252,205,82);fill-rule:nonzero;"/>
        <path d="M35.433,40.887L35.433,38.079L39.534,38.079L39.534,40.887L35.433,40.887Z" style="fill:rgb(227,123,34);fill-rule:nonzero;"/>
        <path d="M17.681,28.604L17.681,16.32L25.931,16.32L25.931,24.476L30.013,24.476L30.013,28.649L17.677,28.649L17.677,28.626L17.681,28.604Z" style="fill:rgb(147,121,72);fill-rule:nonzero;"/>
        <path d="M42.161,20.485L42.161,16.411L29.919,16.411L29.919,4.165L25.841,4.165L25.841,0L50.408,0L50.408,4.169L46.329,4.169L46.329,20.485L42.161,20.485Z" style="fill:rgb(206,79,91);fill-rule:nonzero;"/>
        <path d="M46.193,20.538L46.193,4.037L50.457,4.037L50.457,20.538L46.193,20.538Z" style="fill:rgb(205,66,47);fill-rule:nonzero;"/>
        <path d="M25.841,16.411L25.841,4.078L30.009,4.078L30.009,16.411L25.841,16.411Z" style="fill:rgb(122,33,67);fill-rule:nonzero;"/>
        <path d="M29.873,24.567L29.873,16.275L42.297,16.275L42.297,20.534L39.575,20.534L39.575,24.616L29.877,24.616L29.877,24.59L29.873,24.567Z" style="fill:rgb(205,70,61);fill-rule:nonzero;"/>
        <path d="M25.841,24.567L25.841,16.32L30.009,16.32L30.009,24.567L25.841,24.567Z" style="fill:rgb(175,53,57);fill-rule:nonzero;"/>
        <path d="M55.759,42.252L55.759,38.17L42.161,38.17L42.161,24.476L46.329,24.476L46.329,28.558L64.014,28.558L64.014,42.252L55.759,42.252Z" style="fill:rgb(66,85,131);fill-rule:nonzero;"/>
        <path d="M46.239,28.649L46.239,24.476L50.321,24.476L50.321,20.395L64.014,20.395L64.014,28.649L46.239,28.649Z" style="fill:rgb(68,75,93);fill-rule:nonzero;"/>
        <path d="M39.443,44.969L39.443,40.796L42.161,40.796L42.161,38.075L55.85,38.075L55.85,42.252L50.408,42.252L50.408,44.969L39.443,44.969Z" style="fill:rgb(63,43,79);fill-rule:nonzero;"/>
        <path d="M39.443,38.17L39.443,24.48L42.251,24.48L42.251,38.17L39.443,38.17Z" style="fill:rgb(68,78,105);fill-rule:nonzero;"/>
        <path d="M39.443,40.887L39.443,38.079L42.251,38.079L42.251,40.887L39.443,40.887Z" style="fill:rgb(67,64,89);fill-rule:nonzero;"/>
        <rect x="42.161" y="20.398" width="4.169" height="4.169" style="fill:rgb(64,56,94);fill-rule:nonzero;"/>
        <rect x="46.239" y="20.398" width="4.173" height="4.169" style="fill:rgb(65,53,84);fill-rule:nonzero;"/>
        <rect x="39.443" y="20.398" width="2.808" height="4.169" style="fill:rgb(65,54,87);fill-rule:nonzero;"/>
        <path d="M50.321,66.732L50.321,62.559L55.759,62.559L55.759,44.878L63.923,44.878L63.923,42.157L74.888,42.157L74.888,66.732L50.321,66.732Z" style="fill:rgb(253,229,165);fill-rule:nonzero;"/>
        <path d="M50.321,62.65L50.321,44.878L55.85,44.878L55.85,62.65L50.321,62.65Z" style="fill:rgb(205,66,47);fill-rule:nonzero;"/>
        <path d="M55.759,44.969L55.759,42.161L64.014,42.161L64.014,44.969L55.759,44.969Z" style="fill:rgb(116,112,115);fill-rule:nonzero;"/>
        <path d="M50.321,44.969L50.321,42.161L55.85,42.161L55.85,44.969L50.321,44.969Z" style="fill:rgb(110,75,80);fill-rule:nonzero;"/>
        <path d="M24.48,58.572L24.48,44.969L10.881,44.969L10.881,34.001L17.771,34.001L17.771,40.796L31.37,40.796L31.37,58.572L24.48,58.572Z" style="fill:rgb(230,159,158);fill-rule:nonzero;"/>
        <path d="M31.279,58.572L31.279,40.8L35.528,40.8L35.528,58.572L31.279,58.572Z" style="fill:rgb(185,17,52);fill-rule:nonzero;"/>
        <path d="M17.681,40.891L17.681,34.001L35.52,34.001L35.52,38.17L31.37,38.17L31.37,40.891L17.681,40.891Z" style="fill:rgb(228,134,71);fill-rule:nonzero;"/>
        <path d="M31.279,40.887L31.279,38.079L35.528,38.079L35.528,40.887L31.279,40.887Z" style="fill:rgb(212,85,44);fill-rule:nonzero;"/>
        <path d="M0,69.449L0,44.875L10.972,44.875L10.972,58.481L24.567,58.481L24.567,69.449L0,69.449Z" style="fill:rgb(146,153,187);fill-rule:nonzero;"/>
        <path d="M10.881,58.572L10.881,44.878L24.567,44.878L24.567,58.572L10.881,58.572Z" style="fill:rgb(137,108,137);fill-rule:nonzero;"/>
    </g>
    <g transform="matrix(0.94879,0,0,0.94879,1012.93,102.049)">
        <path d="M-945.555,-34.424C-947.501,-34.988 -949.41,-35.67 -951.273,-36.465C-951.596,-36.59 -951.937,-36.663 -952.283,-36.68C-955.552,-36.896 -958.606,-39.303 -958.606,-44.031C-958.606,-48.378 -955.854,-51.643 -951.53,-51.643C-947.101,-51.643 -944.671,-48.291 -944.671,-44.334C-944.671,-41.045 -946.198,-38.721 -948.11,-37.863L-948.11,-37.776C-946.995,-37.451 -945.748,-37.194 -944.606,-36.96L-945.555,-34.424ZM-951.617,-39.28C-949.425,-39.28 -948.133,-41.367 -948.133,-44.205C-948.133,-46.851 -949.38,-49.043 -951.617,-49.043C-953.851,-49.043 -955.144,-46.851 -955.144,-44.141C-955.163,-41.389 -953.832,-39.28 -951.636,-39.28L-951.617,-39.28ZM-935.6,-51.405L-935.6,-43.064C-935.6,-40.569 -934.655,-39.303 -932.977,-39.303C-931.257,-39.303 -930.312,-40.505 -930.312,-43.064L-930.312,-51.405L-927.043,-51.405L-927.043,-43.279C-927.043,-38.808 -929.299,-36.68 -933.086,-36.68C-936.741,-36.68 -938.892,-38.698 -938.892,-43.321L-938.892,-51.409L-935.6,-51.405ZM-911.932,-43.045L-917.261,-43.045L-917.261,-39.605L-911.309,-39.605L-911.309,-36.914L-920.553,-36.914L-920.553,-51.405L-911.611,-51.405L-911.611,-48.722L-917.265,-48.722L-917.265,-45.709L-911.932,-45.709L-911.932,-43.045ZM-896.799,-43.045L-902.128,-43.045L-902.128,-39.605L-896.175,-39.605L-896.175,-36.914L-905.42,-36.914L-905.42,-51.405L-896.474,-51.405L-896.474,-48.722L-902.128,-48.722L-902.128,-45.709L-896.799,-45.709L-896.799,-43.045ZM-890.287,-36.914L-890.287,-51.405L-886.458,-51.405L-883.45,-46.095C-882.554,-44.493 -881.763,-42.834 -881.084,-41.129L-881.02,-41.129C-881.227,-43.143 -881.32,-45.167 -881.299,-47.191L-881.299,-51.405L-878.287,-51.405L-878.287,-36.914L-881.726,-36.914L-884.826,-42.508C-885.683,-44.054 -886.628,-45.925 -887.339,-47.622L-887.407,-47.603C-887.32,-45.691 -887.275,-43.646 -887.275,-41.284L-887.275,-36.918L-890.287,-36.914ZM-868.32,-51.794C-868.963,-49.77 -869.828,-47.823 -870.898,-45.989L-872.878,-45.796C-872.232,-47.645 -871.673,-49.708 -871.393,-51.602L-868.32,-51.794ZM-863.244,-40.293C-862.364,-39.84 -861.011,-39.386 -859.612,-39.386C-858.108,-39.386 -857.311,-40.014 -857.311,-40.959C-857.311,-41.862 -857.998,-42.376 -859.741,-43C-862.148,-43.839 -863.717,-45.173 -863.717,-47.278C-863.717,-49.75 -861.653,-51.643 -858.237,-51.643C-856.604,-51.643 -855.398,-51.299 -854.536,-50.91L-855.27,-48.264C-856.214,-48.723 -857.251,-48.96 -858.301,-48.956C-859.718,-48.956 -860.41,-48.314 -860.41,-47.558C-860.41,-46.635 -859.59,-46.223 -857.723,-45.517C-855.16,-44.572 -853.958,-43.238 -853.958,-41.193C-853.958,-38.766 -855.829,-36.68 -859.805,-36.68C-861.46,-36.68 -863.093,-37.134 -863.913,-37.583L-863.244,-40.293ZM-837.037,-51.405L-837.037,-43.064C-837.037,-40.569 -836.092,-39.303 -834.414,-39.303C-832.691,-39.303 -831.746,-40.505 -831.746,-43.064L-831.746,-51.405L-828.477,-51.405L-828.477,-43.279C-828.477,-38.808 -830.737,-36.68 -834.52,-36.68C-838.175,-36.68 -840.325,-38.698 -840.325,-43.321L-840.325,-51.409L-837.037,-51.405ZM-821.987,-36.914L-821.987,-51.405L-818.162,-51.405L-815.15,-46.095C-814.255,-44.493 -813.466,-42.834 -812.788,-41.129L-812.723,-41.129C-812.929,-43.143 -813.021,-45.167 -812.999,-47.191L-812.999,-51.405L-809.991,-51.405L-809.991,-36.914L-813.43,-36.914L-816.529,-42.508C-817.387,-44.054 -818.332,-45.925 -819.043,-47.622L-819.107,-47.603C-819.02,-45.691 -818.979,-43.646 -818.979,-41.284L-818.979,-36.918L-821.987,-36.914ZM-803.501,-51.405L-800.213,-51.405L-800.213,-36.914L-803.501,-36.914L-803.501,-51.405ZM-790.3,-36.914L-794.945,-51.405L-791.354,-51.405L-789.589,-45.282C-789.098,-43.559 -788.644,-41.903 -788.304,-40.097L-788.236,-40.097C-787.87,-41.82 -787.432,-43.527 -786.924,-45.214L-785.072,-51.405L-781.595,-51.405L-786.471,-36.914L-790.3,-36.914ZM-767.77,-43.045L-773.099,-43.045L-773.099,-39.605L-767.146,-39.605L-767.146,-36.914L-776.391,-36.914L-776.391,-51.405L-767.448,-51.405L-767.448,-48.722L-773.103,-48.722L-773.103,-45.709L-767.77,-45.709L-767.77,-43.045ZM-761.258,-51.212C-760.203,-51.386 -758.635,-51.515 -756.892,-51.515C-754.745,-51.515 -753.237,-51.194 -752.206,-50.373C-751.348,-49.685 -750.875,-48.673 -750.875,-47.342C-750.875,-45.49 -752.187,-44.224 -753.43,-43.774L-753.43,-43.71C-752.421,-43.302 -751.862,-42.334 -751.495,-41C-751.045,-39.367 -750.596,-37.474 -750.316,-36.918L-753.668,-36.918C-753.906,-37.345 -754.25,-38.506 -754.681,-40.293C-755.067,-42.1 -755.69,-42.591 -757.025,-42.614L-758.011,-42.614L-758.011,-36.918L-761.261,-36.918L-761.261,-51.212L-761.258,-51.212ZM-758.011,-44.976L-756.726,-44.976C-755.089,-44.976 -754.118,-45.796 -754.118,-47.062C-754.118,-48.397 -755.025,-49.066 -756.529,-49.085C-757.323,-49.085 -757.777,-49.02 -758.011,-48.979L-758.011,-44.976ZM-744.745,-40.29C-743.864,-39.836 -742.515,-39.386 -741.116,-39.386C-739.608,-39.386 -738.811,-40.014 -738.811,-40.959C-738.811,-41.862 -739.503,-42.376 -741.245,-43C-743.653,-43.839 -745.221,-45.173 -745.221,-47.278C-745.221,-49.75 -743.157,-51.643 -739.741,-51.643C-738.104,-51.643 -736.899,-51.299 -736.037,-50.91L-736.77,-48.264C-737.714,-48.723 -738.751,-48.96 -739.801,-48.956C-741.219,-48.956 -741.91,-48.314 -741.91,-47.558C-741.91,-46.635 -741.094,-46.223 -739.223,-45.517C-736.664,-44.572 -735.459,-43.238 -735.459,-41.193C-735.459,-38.766 -737.329,-36.68 -741.305,-36.68C-742.965,-36.68 -744.594,-37.134 -745.414,-37.583L-744.745,-40.29ZM-729.589,-51.405L-726.301,-51.405L-726.301,-36.914L-729.589,-36.914L-729.589,-51.405ZM-717.014,-48.654L-720.907,-48.654L-720.907,-51.405L-709.769,-51.405L-709.769,-48.654L-713.726,-48.654L-713.726,-36.914L-717.014,-36.914L-717.014,-48.654ZM-701.091,-36.914L-701.091,-42.848L-705.668,-51.405L-701.927,-51.405L-700.445,-47.924C-699.991,-46.87 -699.689,-46.095 -699.326,-45.15L-699.285,-45.15C-698.96,-46.053 -698.616,-46.889 -698.189,-47.924L-696.726,-51.405L-693.048,-51.405L-697.822,-42.958L-697.822,-36.914L-701.091,-36.914ZM-679.915,-51.405L-676.626,-51.405L-676.626,-39.666L-670.863,-39.666L-670.863,-36.914L-679.915,-36.914L-679.915,-51.405ZM-665.318,-51.405L-662.03,-51.405L-662.03,-36.914L-665.318,-36.914L-665.318,-51.405ZM-655.578,-51.216C-654.72,-51.386 -652.978,-51.515 -651.345,-51.515C-649.342,-51.515 -648.117,-51.322 -647.067,-50.698C-646.054,-50.158 -645.328,-49.171 -645.328,-47.86C-645.328,-46.567 -646.076,-45.365 -647.709,-44.761L-647.709,-44.723C-646.054,-44.269 -644.829,-43.022 -644.829,-41.151C-644.829,-39.84 -645.434,-38.808 -646.333,-38.079C-647.392,-37.236 -649.153,-36.767 -652.033,-36.767C-653.647,-36.767 -654.849,-36.873 -655.578,-36.979L-655.578,-51.216ZM-652.335,-45.668L-651.258,-45.668C-649.539,-45.668 -648.613,-46.375 -648.613,-47.452C-648.613,-48.548 -649.452,-49.13 -650.937,-49.13C-651.405,-49.138 -651.872,-49.109 -652.335,-49.043L-652.335,-45.668ZM-652.335,-39.239C-652.01,-39.197 -651.625,-39.197 -651.065,-39.197C-649.584,-39.197 -648.269,-39.776 -648.269,-41.28C-648.269,-42.742 -649.584,-43.321 -651.217,-43.321L-652.335,-43.321L-652.335,-39.239ZM-638.982,-51.212C-637.932,-51.386 -636.359,-51.515 -634.621,-51.515C-632.47,-51.515 -630.966,-51.194 -629.934,-50.373C-629.072,-49.685 -628.6,-48.673 -628.6,-47.342C-628.6,-45.49 -629.911,-44.224 -631.159,-43.774L-631.159,-43.71C-630.146,-43.302 -629.59,-42.334 -629.224,-41C-628.77,-39.367 -628.316,-37.474 -628.041,-36.918L-631.397,-36.918C-631.631,-37.345 -631.975,-38.506 -632.406,-40.293C-632.791,-42.1 -633.415,-42.591 -634.749,-42.614L-635.739,-42.614L-635.739,-36.918L-638.986,-36.918L-638.986,-51.212L-638.982,-51.212ZM-635.739,-44.976L-634.447,-44.976C-632.814,-44.976 -631.847,-45.796 -631.847,-47.062C-631.847,-48.397 -632.75,-49.066 -634.254,-49.085C-635.048,-49.085 -635.501,-49.02 -635.739,-48.979L-635.739,-44.976ZM-619.219,-40.634L-620.251,-36.914L-623.649,-36.914L-619.219,-51.409L-614.918,-51.409L-610.424,-36.914L-613.95,-36.914L-615.069,-40.634L-619.219,-40.634ZM-615.542,-43.086L-616.449,-46.159C-616.702,-47.021 -616.963,-48.094 -617.178,-48.956L-617.22,-48.956C-617.435,-48.094 -617.651,-46.998 -617.885,-46.159L-618.747,-43.086L-615.542,-43.086ZM-604.838,-51.212C-603.784,-51.386 -602.215,-51.515 -600.473,-51.515C-598.326,-51.515 -596.818,-51.194 -595.786,-50.373C-594.928,-49.685 -594.456,-48.673 -594.456,-47.342C-594.456,-45.49 -595.767,-44.224 -597.011,-43.774L-597.011,-43.71C-596.001,-43.302 -595.442,-42.334 -595.079,-41C-594.626,-39.367 -594.172,-37.474 -593.896,-36.918L-597.249,-36.918C-597.487,-37.345 -597.831,-38.506 -598.262,-40.293C-598.647,-42.1 -599.271,-42.591 -600.605,-42.614L-601.591,-42.614L-601.591,-36.918L-604.842,-36.918L-604.842,-51.212L-604.838,-51.212ZM-601.591,-44.976L-600.303,-44.976C-598.67,-44.976 -597.702,-45.796 -597.702,-47.062C-597.702,-48.397 -598.606,-49.066 -600.11,-49.085C-600.904,-49.085 -601.357,-49.02 -601.591,-48.979L-601.591,-44.976ZM-585.491,-36.914L-585.491,-42.848L-590.068,-51.405L-586.326,-51.405L-584.844,-47.924C-584.391,-46.87 -584.092,-46.095 -583.726,-45.15L-583.684,-45.15C-583.363,-46.053 -583.019,-46.889 -582.588,-47.924L-581.125,-51.405L-577.448,-51.405L-582.221,-42.958L-582.221,-36.914L-585.491,-36.914Z" style="fill:rgb(184,18,55);fill-rule:nonzero;"/>
    </g>
    <g transform="matrix(4.60929,0,0,4.94891,-527.133,-31.6265)">
        <text x="132.559px" y="15.698px" style="font-family:'Palatino-Roman', 'Palatino';font-size:12px;fill:rgb(51,51,51);">V<tspan x="140.569px 144.061px " y="15.698px 15.698px ">ir</tspan>tual Exhibits</text>
    </g>
</svg>
